<svg xmlns="http://www.w3.org/2000/svg" xmlns:xlink="http://www.w3.org/1999/xlink" width="500" zoomAndPan="magnify" viewBox="0 0 375 374.999991" height="500" preserveAspectRatio="xMidYMid meet" version="1.2"><defs><clipPath id="11a4c00c8d"><path d="M 83.910156 49 L 290.910156 49 L 290.910156 254.820312 L 83.910156 254.820312 Z M 83.910156 49 "/></clipPath></defs><g id="ccc94e6cf4"><g clip-rule="nonzero" clip-path="url(#11a4c00c8d)"><path style=" stroke:none;fill-rule:nonzero;fill:#38b6ff;fill-opacity:1;" d="M 187.347656 49.261719 C 185.65625 49.265625 183.964844 49.308594 182.273438 49.390625 C 180.582031 49.476562 178.898438 49.601562 177.210938 49.769531 C 175.527344 49.9375 173.851562 50.148438 172.175781 50.398438 C 170.503906 50.644531 168.835938 50.9375 167.175781 51.269531 C 165.515625 51.601562 163.867188 51.972656 162.222656 52.382812 C 160.582031 52.796875 158.953125 53.25 157.332031 53.742188 C 155.714844 54.234375 154.109375 54.765625 152.515625 55.335938 C 150.921875 55.90625 149.34375 56.519531 147.78125 57.167969 C 146.21875 57.816406 144.671875 58.5 143.140625 59.226562 C 141.613281 59.949219 140.101562 60.710938 138.609375 61.507812 C 137.117188 62.308594 135.644531 63.140625 134.195312 64.011719 C 132.742188 64.882812 131.3125 65.789062 129.90625 66.730469 C 128.5 67.671875 127.117188 68.644531 125.757812 69.652344 C 124.398438 70.660156 123.066406 71.703125 121.757812 72.777344 C 120.449219 73.851562 119.167969 74.957031 117.914062 76.09375 C 116.660156 77.230469 115.4375 78.394531 114.238281 79.59375 C 113.042969 80.789062 111.875 82.015625 110.738281 83.269531 C 109.601562 84.523438 108.496094 85.800781 107.421875 87.109375 C 106.351562 88.417969 105.308594 89.753906 104.300781 91.113281 C 103.292969 92.46875 102.316406 93.851562 101.375 95.261719 C 100.4375 96.667969 99.53125 98.097656 98.660156 99.546875 C 97.789062 101 96.953125 102.46875 96.15625 103.960938 C 95.359375 105.453125 94.597656 106.964844 93.871094 108.496094 C 93.148438 110.023438 92.460938 111.570312 91.8125 113.132812 C 91.164062 114.699219 90.554688 116.277344 89.984375 117.867188 C 89.414062 119.460938 88.882812 121.066406 88.390625 122.6875 C 87.894531 124.304688 87.445312 125.9375 87.03125 127.578125 C 86.617188 129.21875 86.246094 130.871094 85.914062 132.527344 C 85.582031 134.1875 85.292969 135.855469 85.042969 137.527344 C 84.792969 139.203125 84.585938 140.882812 84.417969 142.566406 C 84.25 144.25 84.125 145.9375 84.039062 147.628906 C 83.953125 149.316406 83.910156 151.007812 83.910156 152.699219 C 89.597656 289.90625 285.097656 289.90625 290.785156 152.699219 C 290.785156 151.007812 290.742188 149.316406 290.65625 147.628906 C 290.570312 145.9375 290.445312 144.25 290.277344 142.566406 C 290.109375 140.882812 289.902344 139.203125 289.652344 137.527344 C 289.402344 135.855469 289.113281 134.1875 288.78125 132.527344 C 288.449219 130.871094 288.078125 129.21875 287.664062 127.578125 C 287.25 125.9375 286.800781 124.304688 286.308594 122.6875 C 285.816406 121.066406 285.28125 119.460938 284.710938 117.867188 C 284.140625 116.277344 283.53125 114.699219 282.882812 113.132812 C 282.234375 111.570312 281.546875 110.023438 280.824219 108.496094 C 280.097656 106.964844 279.335938 105.453125 278.539062 103.960938 C 277.742188 102.46875 276.90625 101 276.035156 99.546875 C 275.164062 98.097656 274.257812 96.667969 273.320312 95.261719 C 272.378906 93.851562 271.402344 92.46875 270.394531 91.113281 C 269.386719 89.753906 268.347656 88.417969 267.273438 87.109375 C 266.199219 85.800781 265.09375 84.523438 263.957031 83.269531 C 262.820312 82.015625 261.652344 80.789062 260.457031 79.59375 C 259.261719 78.394531 258.035156 77.230469 256.78125 76.09375 C 255.527344 74.957031 254.246094 73.851562 252.9375 72.777344 C 251.628906 71.703125 250.296875 70.660156 248.9375 69.652344 C 247.578125 68.644531 246.195312 67.671875 244.789062 66.730469 C 243.382812 65.789062 241.953125 64.882812 240.5 64.011719 C 239.050781 63.140625 237.578125 62.308594 236.085938 61.507812 C 234.59375 60.710938 233.082031 59.949219 231.554688 59.226562 C 230.023438 58.5 228.476562 57.816406 226.914062 57.167969 C 225.351562 56.519531 223.773438 55.90625 222.179688 55.335938 C 220.585938 54.765625 218.980469 54.234375 217.363281 53.742188 C 215.742188 53.25 214.113281 52.796875 212.472656 52.382812 C 210.828125 51.972656 209.179688 51.601562 207.519531 51.269531 C 205.859375 50.9375 204.195312 50.644531 202.519531 50.398438 C 200.847656 50.148438 199.167969 49.9375 197.484375 49.769531 C 195.800781 49.601562 194.113281 49.476562 192.421875 49.390625 C 190.730469 49.308594 189.039062 49.265625 187.347656 49.261719 Z M 156.757812 120.78125 L 130.011719 149.894531 L 156.757812 179.078125 L 145.824219 189.050781 L 109.917969 149.894531 L 145.824219 110.734375 Z M 164.445312 191.34375 L 196.4375 108.664062 L 210.253906 114.058594 L 178.261719 196.734375 Z M 217.9375 179.078125 L 244.683594 149.894531 L 217.9375 120.78125 L 228.871094 110.734375 L 264.777344 149.894531 L 228.871094 189.050781 Z M 217.9375 179.078125 "/></g><g style="fill:#38b6ff;fill-opacity:1;"><g transform="translate(37.500002, 318.403046)"><path style="stroke:none" d="M 44.640625 -23.8125 C 44.640625 -16.113281 42.453125 -10.21875 38.078125 -6.125 C 33.703125 -2.039062 27.378906 0 19.109375 0 L 5.875 0 L 5.875 -46.71875 L 20.546875 -46.71875 C 28.171875 -46.71875 34.09375 -44.703125 38.3125 -40.671875 C 42.53125 -36.648438 44.640625 -31.03125 44.640625 -23.8125 Z M 34.359375 -23.546875 C 34.359375 -33.585938 29.925781 -38.609375 21.0625 -38.609375 L 15.78125 -38.609375 L 15.78125 -8.1875 L 20.03125 -8.1875 C 29.582031 -8.1875 34.359375 -13.304688 34.359375 -23.546875 Z M 34.359375 -23.546875 "/></g></g><g style="fill:#000000;fill-opacity:1;"><g transform="translate(85.956375, 318.403046)"><path style="stroke:none" d="M 32.796875 -12.4375 C 32.796875 -8.320312 31.300781 -5.113281 28.3125 -2.8125 C 25.332031 -0.507812 21.285156 0.640625 16.171875 0.640625 C 10.628906 0.640625 6.367188 -0.0703125 3.390625 -1.5 L 3.390625 -6.75 C 5.304688 -5.9375 7.394531 -5.296875 9.65625 -4.828125 C 11.914062 -4.359375 14.148438 -4.125 16.359375 -4.125 C 19.984375 -4.125 22.710938 -4.8125 24.546875 -6.1875 C 26.378906 -7.5625 27.296875 -9.472656 27.296875 -11.921875 C 27.296875 -13.535156 26.96875 -14.859375 26.3125 -15.890625 C 25.664062 -16.929688 24.582031 -17.890625 23.0625 -18.765625 C 21.539062 -19.640625 19.222656 -20.628906 16.109375 -21.734375 C 11.765625 -23.285156 8.660156 -25.125 6.796875 -27.25 C 4.929688 -29.382812 4 -32.171875 4 -35.609375 C 4 -39.203125 5.347656 -42.0625 8.046875 -44.1875 C 10.753906 -46.320312 14.335938 -47.390625 18.796875 -47.390625 C 23.441406 -47.390625 27.710938 -46.539062 31.609375 -44.84375 L 29.921875 -40.109375 C 26.054688 -41.722656 22.304688 -42.53125 18.671875 -42.53125 C 15.785156 -42.53125 13.53125 -41.910156 11.90625 -40.671875 C 10.289062 -39.441406 9.484375 -37.726562 9.484375 -35.53125 C 9.484375 -33.914062 9.78125 -32.59375 10.375 -31.5625 C 10.976562 -30.53125 11.988281 -29.582031 13.40625 -28.71875 C 14.820312 -27.851562 16.988281 -26.898438 19.90625 -25.859375 C 24.8125 -24.109375 28.1875 -22.226562 30.03125 -20.21875 C 31.875 -18.21875 32.796875 -15.625 32.796875 -12.4375 Z M 32.796875 -12.4375 "/></g></g><g style="fill:#000000;fill-opacity:1;"><g transform="translate(121.874885, 318.403046)"><path style="stroke:none" d="M 35.859375 -17.546875 C 35.859375 -11.835938 34.421875 -7.378906 31.546875 -4.171875 C 28.671875 -0.960938 24.695312 0.640625 19.625 0.640625 C 16.488281 0.640625 13.707031 -0.09375 11.28125 -1.5625 C 8.851562 -3.03125 6.976562 -5.140625 5.65625 -7.890625 C 4.332031 -10.640625 3.671875 -13.859375 3.671875 -17.546875 C 3.671875 -23.253906 5.097656 -27.703125 7.953125 -30.890625 C 10.804688 -34.078125 14.769531 -35.671875 19.84375 -35.671875 C 24.75 -35.671875 28.644531 -34.039062 31.53125 -30.78125 C 34.414062 -27.519531 35.859375 -23.109375 35.859375 -17.546875 Z M 9.171875 -17.546875 C 9.171875 -13.066406 10.066406 -9.65625 11.859375 -7.3125 C 13.648438 -4.96875 16.28125 -3.796875 19.75 -3.796875 C 23.21875 -3.796875 25.851562 -4.960938 27.65625 -7.296875 C 29.457031 -9.628906 30.359375 -13.046875 30.359375 -17.546875 C 30.359375 -21.992188 29.457031 -25.375 27.65625 -27.6875 C 25.851562 -30 23.195312 -31.15625 19.6875 -31.15625 C 16.21875 -31.15625 13.597656 -30.015625 11.828125 -27.734375 C 10.054688 -25.460938 9.171875 -22.066406 9.171875 -17.546875 Z M 9.171875 -17.546875 "/></g></g><g style="fill:#000000;fill-opacity:1;"><g transform="translate(161.404428, 318.403046)"><path style="stroke:none" d="M 10.9375 0 L 5.625 0 L 5.625 -49.734375 L 10.9375 -49.734375 Z M 10.9375 0 "/></g></g><g style="fill:#000000;fill-opacity:1;"><g transform="translate(177.95762, 318.403046)"><path style="stroke:none" d="M 10.609375 -35.03125 L 10.609375 -12.296875 C 10.609375 -9.441406 11.257812 -7.3125 12.5625 -5.90625 C 13.863281 -4.5 15.898438 -3.796875 18.671875 -3.796875 C 22.328125 -3.796875 25.003906 -4.796875 26.703125 -6.796875 C 28.398438 -8.804688 29.25 -12.082031 29.25 -16.625 L 29.25 -35.03125 L 34.546875 -35.03125 L 34.546875 0 L 30.171875 0 L 29.40625 -4.703125 L 29.109375 -4.703125 C 28.023438 -2.972656 26.519531 -1.648438 24.59375 -0.734375 C 22.664062 0.179688 20.46875 0.640625 18 0.640625 C 13.726562 0.640625 10.53125 -0.367188 8.40625 -2.390625 C 6.289062 -4.421875 5.234375 -7.660156 5.234375 -12.109375 L 5.234375 -35.03125 Z M 10.609375 -35.03125 "/></g></g><g style="fill:#000000;fill-opacity:1;"><g transform="translate(218.126283, 318.403046)"><path style="stroke:none" d="M 16.9375 -3.734375 C 17.875 -3.734375 18.78125 -3.800781 19.65625 -3.9375 C 20.53125 -4.082031 21.222656 -4.226562 21.734375 -4.375 L 21.734375 -0.3125 C 21.160156 -0.0390625 20.3125 0.179688 19.1875 0.359375 C 18.070312 0.546875 17.066406 0.640625 16.171875 0.640625 C 9.398438 0.640625 6.015625 -2.925781 6.015625 -10.0625 L 6.015625 -30.90625 L 0.984375 -30.90625 L 0.984375 -33.46875 L 6.015625 -35.671875 L 8.25 -43.140625 L 11.3125 -43.140625 L 11.3125 -35.03125 L 21.484375 -35.03125 L 21.484375 -30.90625 L 11.3125 -30.90625 L 11.3125 -10.296875 C 11.3125 -8.179688 11.8125 -6.554688 12.8125 -5.421875 C 13.8125 -4.296875 15.1875 -3.734375 16.9375 -3.734375 Z M 16.9375 -3.734375 "/></g></g><g style="fill:#000000;fill-opacity:1;"><g transform="translate(241.230458, 318.403046)"><path style="stroke:none" d="M 10.9375 0 L 5.625 0 L 5.625 -35.03125 L 10.9375 -35.03125 Z M 5.171875 -44.515625 C 5.171875 -45.734375 5.46875 -46.625 6.0625 -47.1875 C 6.664062 -47.75 7.414062 -48.03125 8.3125 -48.03125 C 9.164062 -48.03125 9.898438 -47.742188 10.515625 -47.171875 C 11.128906 -46.597656 11.4375 -45.710938 11.4375 -44.515625 C 11.4375 -43.328125 11.128906 -42.4375 10.515625 -41.84375 C 9.898438 -41.257812 9.164062 -40.96875 8.3125 -40.96875 C 7.414062 -40.96875 6.664062 -41.257812 6.0625 -41.84375 C 5.46875 -42.4375 5.171875 -43.328125 5.171875 -44.515625 Z M 5.171875 -44.515625 "/></g></g><g style="fill:#000000;fill-opacity:1;"><g transform="translate(257.78365, 318.403046)"><path style="stroke:none" d="M 35.859375 -17.546875 C 35.859375 -11.835938 34.421875 -7.378906 31.546875 -4.171875 C 28.671875 -0.960938 24.695312 0.640625 19.625 0.640625 C 16.488281 0.640625 13.707031 -0.09375 11.28125 -1.5625 C 8.851562 -3.03125 6.976562 -5.140625 5.65625 -7.890625 C 4.332031 -10.640625 3.671875 -13.859375 3.671875 -17.546875 C 3.671875 -23.253906 5.097656 -27.703125 7.953125 -30.890625 C 10.804688 -34.078125 14.769531 -35.671875 19.84375 -35.671875 C 24.75 -35.671875 28.644531 -34.039062 31.53125 -30.78125 C 34.414062 -27.519531 35.859375 -23.109375 35.859375 -17.546875 Z M 9.171875 -17.546875 C 9.171875 -13.066406 10.066406 -9.65625 11.859375 -7.3125 C 13.648438 -4.96875 16.28125 -3.796875 19.75 -3.796875 C 23.21875 -3.796875 25.851562 -4.960938 27.65625 -7.296875 C 29.457031 -9.628906 30.359375 -13.046875 30.359375 -17.546875 C 30.359375 -21.992188 29.457031 -25.375 27.65625 -27.6875 C 25.851562 -30 23.195312 -31.15625 19.6875 -31.15625 C 16.21875 -31.15625 13.597656 -30.015625 11.828125 -27.734375 C 10.054688 -25.460938 9.171875 -22.066406 9.171875 -17.546875 Z M 9.171875 -17.546875 "/></g></g><g style="fill:#000000;fill-opacity:1;"><g transform="translate(297.313193, 318.403046)"><path style="stroke:none" d="M 29.59375 0 L 29.59375 -22.65625 C 29.59375 -25.507812 28.941406 -27.640625 27.640625 -29.046875 C 26.347656 -30.453125 24.316406 -31.15625 21.546875 -31.15625 C 17.878906 -31.15625 15.191406 -30.164062 13.484375 -28.1875 C 11.785156 -26.207031 10.9375 -22.9375 10.9375 -18.375 L 10.9375 0 L 5.625 0 L 5.625 -35.03125 L 9.9375 -35.03125 L 10.796875 -30.234375 L 11.0625 -30.234375 C 12.144531 -31.960938 13.664062 -33.300781 15.625 -34.25 C 17.582031 -35.195312 19.769531 -35.671875 22.1875 -35.671875 C 26.40625 -35.671875 29.578125 -34.648438 31.703125 -32.609375 C 33.835938 -30.578125 34.90625 -27.320312 34.90625 -22.84375 L 34.90625 0 Z M 29.59375 0 "/></g></g></g></svg>