<svg xmlns="http://www.w3.org/2000/svg" xmlns:xlink="http://www.w3.org/1999/xlink" width="500" zoomAndPan="magnify" viewBox="0 0 375 374.999991" height="500" preserveAspectRatio="xMidYMid meet" version="1.2"><defs><clipPath id="c04e24361a"><path d="M 0 4 L 373.5 4 L 373.5 374.910156 L 0 374.910156 Z M 0 4 "/></clipPath></defs><g id="2959b62e9d"><g clip-rule="nonzero" clip-path="url(#c04e24361a)"><path style=" stroke:none;fill-rule:nonzero;fill:#38b6ff;fill-opacity:1;" d="M 186.75 4.011719 C 183.695312 4.011719 180.640625 4.089844 177.589844 4.246094 C 174.539062 4.398438 171.492188 4.625 168.453125 4.925781 C 165.410156 5.230469 162.378906 5.605469 159.359375 6.058594 C 156.335938 6.507812 153.328125 7.035156 150.332031 7.632812 C 147.335938 8.230469 144.355469 8.902344 141.390625 9.648438 C 138.429688 10.390625 135.484375 11.207031 132.5625 12.097656 C 129.640625 12.984375 126.738281 13.945312 123.863281 14.976562 C 120.988281 16.007812 118.136719 17.109375 115.316406 18.28125 C 112.492188 19.449219 109.703125 20.691406 106.941406 21.996094 C 104.179688 23.304688 101.453125 24.679688 98.757812 26.121094 C 96.0625 27.5625 93.40625 29.070312 90.785156 30.640625 C 88.164062 32.210938 85.585938 33.847656 83.046875 35.546875 C 80.503906 37.242188 78.007812 39.003906 75.554688 40.824219 C 73.101562 42.644531 70.695312 44.523438 68.332031 46.460938 C 65.96875 48.402344 63.65625 50.398438 61.394531 52.449219 C 59.128906 54.5 56.917969 56.605469 54.757812 58.769531 C 52.597656 60.929688 50.492188 63.140625 48.4375 65.402344 C 46.386719 67.667969 44.390625 69.980469 42.453125 72.34375 C 40.515625 74.703125 38.632812 77.109375 36.8125 79.566406 C 34.992188 82.019531 33.234375 84.515625 31.535156 87.054688 C 29.835938 89.59375 28.203125 92.175781 26.632812 94.796875 C 25.058594 97.414062 23.554688 100.074219 22.113281 102.765625 C 20.671875 105.460938 19.296875 108.1875 17.988281 110.949219 C 16.679688 113.710938 15.441406 116.503906 14.269531 119.324219 C 13.097656 122.148438 12 124.996094 10.96875 127.871094 C 9.9375 130.75 8.976562 133.648438 8.085938 136.570312 C 7.199219 139.496094 6.382812 142.4375 5.636719 145.402344 C 4.890625 148.363281 4.222656 151.34375 3.621094 154.339844 C 3.023438 157.335938 2.5 160.347656 2.046875 163.367188 C 1.597656 166.390625 1.21875 169.421875 0.917969 172.460938 C 0.617188 175.5 0.386719 178.546875 0.234375 181.597656 C 0.0820312 184.652344 0.00390625 187.703125 0 190.761719 C 10.269531 438.46875 363.230469 438.46875 373.5 190.761719 C 373.496094 187.703125 373.417969 184.652344 373.265625 181.597656 C 373.113281 178.546875 372.882812 175.5 372.582031 172.460938 C 372.28125 169.421875 371.902344 166.390625 371.453125 163.367188 C 371 160.347656 370.476562 157.335938 369.878906 154.339844 C 369.277344 151.34375 368.609375 148.363281 367.863281 145.402344 C 367.117188 142.4375 366.300781 139.496094 365.414062 136.570312 C 364.523438 133.648438 363.5625 130.75 362.53125 127.871094 C 361.5 124.996094 360.402344 122.148438 359.230469 119.324219 C 358.058594 116.503906 356.820312 113.710938 355.511719 110.949219 C 354.203125 108.1875 352.828125 105.460938 351.386719 102.765625 C 349.945312 100.074219 348.441406 97.414062 346.867188 94.796875 C 345.296875 92.175781 343.664062 89.59375 341.964844 87.054688 C 340.265625 84.515625 338.507812 82.019531 336.6875 79.566406 C 334.863281 77.109375 332.984375 74.703125 331.046875 72.34375 C 329.109375 69.980469 327.113281 67.667969 325.0625 65.402344 C 323.007812 63.140625 320.902344 60.929688 318.742188 58.769531 C 316.582031 56.605469 314.371094 54.5 312.105469 52.449219 C 309.84375 50.398438 307.53125 48.402344 305.167969 46.460938 C 302.804688 44.523438 300.398438 42.644531 297.945312 40.824219 C 295.492188 39.003906 292.996094 37.242188 290.453125 35.546875 C 287.914062 33.847656 285.335938 32.210938 282.714844 30.640625 C 280.09375 29.070312 277.4375 27.5625 274.742188 26.121094 C 272.046875 24.679688 269.320312 23.304688 266.558594 21.996094 C 263.796875 20.691406 261.007812 19.449219 258.183594 18.28125 C 255.363281 17.109375 252.511719 16.007812 249.636719 14.976562 C 246.761719 13.945312 243.859375 12.984375 240.9375 12.097656 C 238.015625 11.207031 235.070312 10.390625 232.109375 9.648438 C 229.144531 8.902344 226.164062 8.230469 223.167969 7.632812 C 220.171875 7.035156 217.164062 6.507812 214.140625 6.058594 C 211.121094 5.605469 208.089844 5.230469 205.046875 4.925781 C 202.007812 4.625 198.960938 4.398438 195.910156 4.246094 C 192.859375 4.089844 189.804688 4.011719 186.75 4.011719 Z M 131.523438 133.132812 L 83.238281 185.691406 L 131.523438 238.382812 L 111.785156 256.390625 L 46.953125 185.691406 L 111.785156 114.992188 Z M 145.398438 260.523438 L 203.15625 111.257812 L 228.101562 120.996094 L 170.34375 270.261719 Z M 241.976562 238.382812 L 290.261719 185.691406 L 241.976562 133.132812 L 261.714844 114.992188 L 326.546875 185.691406 L 261.714844 256.390625 Z M 241.976562 238.382812 "/></g></g></svg>